<svg width="2000px" height="1844px"
 viewBox="0.00 0.00 587.68 542.40" xmlns="http://www.w3.org/2000/svg" xmlns:xlink="http://www.w3.org/1999/xlink">
<g id="graph0" class="graph" transform="scale(1.0 1.0) rotate(0) translate(4 538.4)">
<title>ContextMapGraph</title>
<polygon fill="white" stroke="transparent" points="-4,4 -4,-538.4 583.68,-538.4 583.68,4 -4,4"/>
<!-- DeliveryContext -->
<g id="node1" class="node">
<title>DeliveryContext</title>
<polygon fill="none" stroke="black" stroke-width="2" points="249.72,-16.67 255.73,-18.58 261.47,-20.56 266.92,-22.61 272.05,-24.72 276.85,-26.89 281.29,-29.1 285.35,-31.35 289.02,-33.63 292.29,-35.93 295.13,-38.25 297.53,-40.58 299.49,-42.9 301.01,-45.22 302.07,-47.53 302.66,-49.82 302.81,-52.08 302.49,-54.31 301.72,-56.5 300.5,-58.66 298.84,-60.76 296.75,-62.82 294.24,-64.82 291.33,-66.77 288.03,-68.65 284.35,-70.47 280.32,-72.22 275.96,-73.9 271.28,-75.51 266.3,-77.04 261.06,-78.5 255.57,-79.88 249.86,-81.18 243.95,-82.4 237.86,-83.54 231.63,-84.6 225.27,-85.57 218.81,-86.46 212.27,-87.26 205.67,-87.98 199.05,-88.61 192.41,-89.15 185.78,-89.6 179.19,-89.97 172.64,-90.24 166.17,-90.43 159.77,-90.52 153.48,-90.52 147.3,-90.43 141.25,-90.25 135.34,-89.97 129.59,-89.59 123.99,-89.12 118.56,-88.56 113.31,-87.9 108.24,-87.14 103.36,-86.28 98.68,-85.33 94.19,-84.28 89.91,-83.14 85.83,-81.9 81.96,-80.56 78.29,-79.14 74.84,-77.62 71.6,-76.01 68.57,-74.32 65.75,-72.54 63.15,-70.68 60.76,-68.74 58.59,-66.73 56.64,-64.65 54.91,-62.51 53.4,-60.3 52.12,-58.04 51.06,-55.74 50.23,-53.39 49.64,-51 49.28,-48.59 49.16,-46.16 49.29,-43.71 49.66,-41.26 50.29,-38.82 51.17,-36.38 52.32,-33.96 53.73,-31.58 55.41,-29.23 57.36,-26.92 59.59,-24.67 62.1,-22.48 64.89,-20.36 67.96,-18.32 71.31,-16.37 74.94,-14.52 78.86,-12.76 83.05,-11.12 87.52,-9.59 92.26,-8.18 97.26,-6.9 102.51,-5.76 108.02,-4.75 113.75,-3.88 119.72,-3.16 125.89,-2.58 132.25,-2.16 138.8,-1.88 145.5,-1.76 152.35,-1.79 159.32,-1.96 166.38,-2.29 173.53,-2.77 180.72,-3.39 187.94,-4.16 195.16,-5.06 202.36,-6.1 209.5,-7.27 216.56,-8.56 223.52,-9.97 230.34,-11.49 237,-13.12 243.47,-14.85 249.72,-16.67"/>
<text text-anchor="middle" x="166.14" y="-45.05" font-family="sans-serif" font-size="16.00">DeliveryContext</text>
</g>
<!-- PedidoContext -->
<g id="node2" class="node">
<title>PedidoContext</title>
<polygon fill="none" stroke="black" stroke-width="2" points="423.65,-331.88 425.48,-334.67 427,-337.47 428.19,-340.27 429.05,-343.06 429.57,-345.83 429.75,-348.56 429.58,-351.25 429.07,-353.89 428.21,-356.47 427,-358.97 425.45,-361.39 423.55,-363.72 421.32,-365.96 418.75,-368.1 415.86,-370.13 412.66,-372.05 409.14,-373.85 405.34,-375.53 401.24,-377.08 396.88,-378.51 392.26,-379.81 387.39,-380.98 382.3,-382.02 377,-382.94 371.5,-383.72 365.84,-384.38 360.01,-384.91 354.05,-385.32 347.98,-385.6 341.8,-385.77 335.55,-385.83 329.25,-385.78 322.91,-385.62 316.55,-385.35 310.2,-384.99 303.88,-384.53 297.6,-383.98 291.39,-383.35 285.26,-382.63 279.23,-381.83 273.33,-380.96 267.56,-380.01 261.94,-379 256.5,-377.92 251.24,-376.79 246.18,-375.59 241.33,-374.33 236.71,-373.02 232.32,-371.66 228.18,-370.24 224.29,-368.78 220.67,-367.27 217.32,-365.72 214.25,-364.11 211.46,-362.47 208.95,-360.78 206.74,-359.05 204.82,-357.28 203.2,-355.47 201.87,-353.62 200.85,-351.73 200.12,-349.81 199.68,-347.85 199.54,-345.86 199.69,-343.84 200.12,-341.79 200.84,-339.72 201.84,-337.62 203.12,-335.51 204.66,-333.39 206.47,-331.25 208.54,-329.11 210.86,-326.96 213.42,-324.83 216.23,-322.7 219.26,-320.59 222.52,-318.51 225.99,-316.45 229.67,-314.43 233.55,-312.46 237.62,-310.54 241.87,-308.69 246.29,-306.9 250.87,-305.19 255.61,-303.56 260.49,-302.02 265.51,-300.59 270.65,-299.26 275.89,-298.05 281.25,-296.96 286.69,-296 292.2,-295.18 297.79,-294.49 303.43,-293.96 309.11,-293.57 314.82,-293.34 320.54,-293.28 326.27,-293.37 331.98,-293.62 337.67,-294.05 343.32,-294.63 348.92,-295.38 354.45,-296.3 359.89,-297.38 365.24,-298.61 370.47,-300 375.57,-301.54 380.53,-303.23 385.33,-305.06 389.96,-307.01 394.4,-309.09 398.64,-311.29 402.66,-313.59 406.45,-315.99 410,-318.48 413.29,-321.05 416.31,-323.69 419.05,-326.38 421.5,-329.11 423.65,-331.88"/>
<text text-anchor="middle" x="312.14" y="-338.26" font-family="sans-serif" font-size="16.00">PedidoContext</text>
</g>
<!-- VentaContext -->
<g id="node3" class="node">
<title>VentaContext</title>
<polygon fill="none" stroke="black" stroke-width="2" points="400.32,-221.08 396.28,-223.44 392.01,-225.7 387.55,-227.87 382.9,-229.94 378.08,-231.89 373.11,-233.73 368,-235.44 362.78,-237.01 357.46,-238.44 352.06,-239.72 346.59,-240.85 341.08,-241.83 335.53,-242.65 329.96,-243.3 324.39,-243.79 318.84,-244.12 313.31,-244.28 307.82,-244.27 302.39,-244.11 297.03,-243.78 291.74,-243.29 286.54,-242.66 281.44,-241.87 276.45,-240.93 271.58,-239.86 266.84,-238.65 262.23,-237.32 257.77,-235.86 253.46,-234.3 249.31,-232.63 245.32,-230.86 241.51,-229.01 237.87,-227.07 234.41,-225.07 231.14,-223 228.07,-220.88 225.19,-218.71 222.51,-216.5 220.04,-214.26 217.77,-212.01 215.73,-209.73 213.9,-207.45 212.29,-205.17 210.91,-202.9 209.76,-200.64 208.85,-198.4 208.17,-196.18 207.73,-193.99 207.54,-191.84 207.6,-189.72 207.9,-187.64 208.46,-185.61 209.27,-183.63 210.34,-181.7 211.66,-179.82 213.24,-178 215.09,-176.23 217.19,-174.52 219.55,-172.87 222.16,-171.28 225.03,-169.76 228.15,-168.29 231.52,-166.89 235.13,-165.55 238.97,-164.27 243.05,-163.06 247.35,-161.92 251.86,-160.84 256.58,-159.83 261.5,-158.89 266.59,-158.02 271.86,-157.22 277.28,-156.49 282.85,-155.84 288.54,-155.26 294.34,-154.76 300.24,-154.34 306.22,-154 312.25,-153.74 318.33,-153.58 324.42,-153.5 330.51,-153.51 336.59,-153.62 342.62,-153.83 348.59,-154.13 354.47,-154.54 360.25,-155.05 365.91,-155.67 371.42,-156.39 376.77,-157.22 381.93,-158.17 386.89,-159.22 391.63,-160.39 396.13,-161.67 400.37,-163.05 404.34,-164.55 408.03,-166.16 411.41,-167.87 414.49,-169.69 417.24,-171.6 419.66,-173.62 421.74,-175.72 423.47,-177.91 424.85,-180.19 425.87,-182.53 426.54,-184.95 426.84,-187.43 426.79,-189.96 426.38,-192.53 425.62,-195.15 424.51,-197.78 423.06,-200.44 421.28,-203.1 419.17,-205.76 416.74,-208.41 414.01,-211.03 411,-213.62 407.7,-216.17 404.14,-218.66 400.32,-221.08"/>
<text text-anchor="middle" x="312.14" y="-191.76" font-family="sans-serif" font-size="16.00">VentaContext</text>
</g>
<!-- PedidoContext&#45;&gt;VentaContext -->
<g id="edge1" class="edge">
<title>PedidoContext&#45;&gt;VentaContext</title>
<path fill="none" stroke="black" stroke-width="2" d="M312.14,-293.34C312.14,-277.72 312.14,-260.37 312.14,-244.72"/>
<text text-anchor="middle" x="368.14" y="-265.82" font-family="sans-serif" font-size="12.00">Customer/Supplier</text>
<polygon fill="white" stroke="transparent" points="305.14,-235.72 305.14,-252.72 319.14,-252.72 319.14,-235.72 305.14,-235.72"/>
<text text-anchor="start" x="307.14" y="-241.12" font-family="sans-serif" font-size="12.00">D</text>
<polygon fill="white" stroke="transparent" points="305.14,-284.34 305.14,-301.34 319.14,-301.34 319.14,-284.34 305.14,-284.34"/>
<text text-anchor="start" x="307.14" y="-289.74" font-family="sans-serif" font-size="12.00">U</text>
</g>
<!-- VentaContext&#45;&gt;DeliveryContext -->
<g id="edge2" class="edge">
<title>VentaContext&#45;&gt;DeliveryContext</title>
<path fill="none" stroke="black" stroke-width="2" d="M273.78,-156.54C252.49,-135.43 226.08,-109.26 204.75,-88.12"/>
<text text-anchor="middle" x="277.64" y="-119.1" font-family="sans-serif" font-size="12.00">Partnership</text>
</g>
<!-- ReservaContext -->
<g id="node4" class="node">
<title>ReservaContext</title>
<polygon fill="none" stroke="black" stroke-width="2" points="353.6,-22.1 358.37,-19.81 363.38,-17.6 368.61,-15.5 374.03,-13.5 379.63,-11.61 385.39,-9.85 391.29,-8.22 397.31,-6.72 403.42,-5.36 409.61,-4.16 415.86,-3.1 422.15,-2.21 428.46,-1.47 434.77,-0.89 441.07,-0.48 447.34,-0.23 453.56,-0.15 459.72,-0.23 465.81,-0.48 471.8,-0.88 477.69,-1.44 483.47,-2.15 489.12,-3.01 494.63,-4.01 499.99,-5.16 505.2,-6.43 510.24,-7.83 515.11,-9.34 519.8,-10.96 524.29,-12.69 528.6,-14.51 532.7,-16.42 536.6,-18.4 540.29,-20.46 543.76,-22.57 547.01,-24.73 550.03,-26.94 552.82,-29.18 555.38,-31.45 557.7,-33.74 559.78,-36.04 561.61,-38.34 563.2,-40.65 564.52,-42.94 565.59,-45.21 566.4,-47.46 566.95,-49.69 567.23,-51.88 567.23,-54.04 566.97,-56.15 566.42,-58.22 565.6,-60.24 564.5,-62.21 563.11,-64.12 561.44,-65.98 559.49,-67.78 557.25,-69.52 554.72,-71.2 551.91,-72.81 548.82,-74.37 545.45,-75.85 541.81,-77.27 537.89,-78.63 533.71,-79.91 529.26,-81.13 524.57,-82.28 519.63,-83.37 514.46,-84.38 509.06,-85.32 503.45,-86.19 497.64,-86.99 491.65,-87.72 485.49,-88.37 479.18,-88.94 472.73,-89.44 466.16,-89.86 459.5,-90.2 452.76,-90.45 445.96,-90.62 439.12,-90.7 432.27,-90.69 425.43,-90.59 418.62,-90.4 411.87,-90.11 405.2,-89.72 398.63,-89.23 392.18,-88.64 385.89,-87.94 379.77,-87.14 373.85,-86.23 368.14,-85.22 362.68,-84.1 357.47,-82.86 352.54,-81.52 347.91,-80.08 343.6,-78.53 339.62,-76.87 335.98,-75.11 332.71,-73.25 329.8,-71.3 327.28,-69.25 325.15,-67.12 323.42,-64.91 322.09,-62.62 321.17,-60.26 320.66,-57.83 320.56,-55.35 320.86,-52.82 321.57,-50.26 322.68,-47.66 324.18,-45.04 326.07,-42.41 328.33,-39.77 330.96,-37.14 333.94,-34.53 337.25,-31.95 340.9,-29.4 344.85,-26.91 349.09,-24.47 353.6,-22.1"/>
<text text-anchor="middle" x="450.14" y="-45.05" font-family="sans-serif" font-size="16.00">ReservaContext</text>
</g>
<!-- VentaContext&#45;&gt;ReservaContext -->
<g id="edge3" class="edge">
<title>VentaContext&#45;&gt;ReservaContext</title>
<path fill="none" stroke="black" stroke-width="2" d="M350.58,-154.25C369.64,-134.26 392.6,-110.18 411.67,-90.19"/>
<text text-anchor="middle" x="419.64" y="-119.1" font-family="sans-serif" font-size="12.00">Partnership</text>
</g>
<!-- RecursosHumanosContext -->
<g id="node5" class="node">
<title>RecursosHumanosContext</title>
<polygon fill="none" stroke="black" stroke-width="2" points="-0.1,-486.56 -0.14,-483.69 0.32,-480.85 1.28,-478.04 2.75,-475.27 4.71,-472.55 7.17,-469.9 10.12,-467.32 13.56,-464.83 17.46,-462.42 21.83,-460.12 26.65,-457.93 31.91,-455.85 37.6,-453.9 43.7,-452.07 50.19,-450.38 57.05,-448.83 64.27,-447.42 71.83,-446.15 79.7,-445.03 87.87,-444.06 96.3,-443.23 104.98,-442.55 113.88,-442.02 122.97,-441.63 132.23,-441.38 141.64,-441.27 151.16,-441.3 160.76,-441.45 170.43,-441.74 180.12,-442.14 189.82,-442.67 199.5,-443.3 209.12,-444.04 218.66,-444.89 228.09,-445.82 237.39,-446.85 246.53,-447.96 255.48,-449.15 264.22,-450.41 272.72,-451.73 280.96,-453.12 288.92,-454.56 296.57,-456.06 303.89,-457.6 310.87,-459.19 317.48,-460.81 323.7,-462.47 329.52,-464.16 334.93,-465.88 339.91,-467.62 344.44,-469.39 348.52,-471.19 352.13,-473 355.27,-474.83 357.93,-476.67 360.1,-478.53 361.79,-480.4 362.97,-482.29 363.66,-484.19 363.86,-486.09 363.55,-488.01 362.76,-489.93 361.47,-491.86 359.7,-493.79 357.45,-495.72 354.73,-497.66 351.54,-499.59 347.91,-501.52 343.82,-503.44 339.31,-505.35 334.38,-507.24 329.05,-509.11 323.32,-510.97 317.23,-512.79 310.77,-514.58 303.98,-516.34 296.87,-518.05 289.45,-519.71 281.76,-521.31 273.8,-522.85 265.6,-524.33 257.19,-525.73 248.57,-527.04 239.78,-528.27 230.84,-529.4 221.78,-530.43 212.6,-531.35 203.35,-532.16 194.03,-532.84 184.69,-533.4 175.33,-533.82 165.99,-534.1 156.69,-534.25 147.46,-534.24 138.31,-534.09 129.27,-533.78 120.37,-533.32 111.62,-532.7 103.06,-531.92 94.7,-530.99 86.57,-529.9 78.69,-528.66 71.07,-527.27 63.75,-525.72 56.74,-524.04 50.06,-522.21 43.73,-520.25 37.76,-518.17 32.18,-515.97 26.99,-513.65 22.22,-511.23 17.88,-508.72 13.99,-506.13 10.54,-503.46 7.56,-500.74 5.05,-497.96 3.02,-495.14 1.49,-492.29 0.44,-489.42 -0.1,-486.56"/>
<text text-anchor="middle" x="182.14" y="-483.25" font-family="sans-serif" font-size="16.00">RecursosHumanosContext</text>
</g>
<!-- RecursosHumanosContext&#45;&gt;DeliveryContext -->
<g id="edge5" class="edge">
<title>RecursosHumanosContext&#45;&gt;DeliveryContext</title>
<path fill="none" stroke="black" stroke-width="2" d="M180.52,-441.82C177.41,-357.03 170.65,-172.73 167.64,-90.67"/>
<text text-anchor="middle" x="231.14" y="-265.82" font-family="sans-serif" font-size="12.00">Customer/Supplier</text>
<polygon fill="white" stroke="transparent" points="160.64,-81.67 160.64,-98.67 174.64,-98.67 174.64,-81.67 160.64,-81.67"/>
<text text-anchor="start" x="162.64" y="-87.07" font-family="sans-serif" font-size="12.00">D</text>
<polygon fill="white" stroke="transparent" points="173.52,-432.82 173.52,-449.82 187.52,-449.82 187.52,-432.82 173.52,-432.82"/>
<text text-anchor="start" x="175.52" y="-438.22" font-family="sans-serif" font-size="12.00">U</text>
</g>
<!-- RecursosHumanosContext&#45;&gt;PedidoContext -->
<g id="edge4" class="edge">
<title>RecursosHumanosContext&#45;&gt;PedidoContext</title>
<path fill="none" stroke="black" stroke-width="2" d="M219.74,-444.69C237.74,-424.89 259.17,-401.32 276.85,-381.87"/>
<text text-anchor="middle" x="306.14" y="-412.1" font-family="sans-serif" font-size="12.00">Customer/Supplier</text>
<polygon fill="white" stroke="transparent" points="269.85,-372.87 269.85,-389.87 283.85,-389.87 283.85,-372.87 269.85,-372.87"/>
<text text-anchor="start" x="271.85" y="-378.27" font-family="sans-serif" font-size="12.00">D</text>
<polygon fill="white" stroke="transparent" points="212.74,-435.69 212.74,-452.69 226.74,-452.69 226.74,-435.69 212.74,-435.69"/>
<text text-anchor="start" x="214.74" y="-441.09" font-family="sans-serif" font-size="12.00">U</text>
</g>
</g>
</svg>
